inDegrees=no
num_controls=7
num_derivatives=13
num_iterations=120
num_multipliers=7
num_parameters=0
num_slacks=7
num_states=26
objective=5.446908
objective_accelerations=0.802492
objective_balance=0.018800
objective_effort=0.187292
objective_height=4.364553
objective_ligament=0.073771
solver_duration=1453.581527
status=Solve_Succeeded
success=true
DataType=double
version=3
OpenSimVersion=4.4-2022-07-23-0e9fedc
endheader
time	/jointset/ground_pelvis/pelvis_tilt/value	/jointset/ground_pelvis/pelvis_tx/value	/jointset/ground_pelvis/pelvis_ty/value	/jointset/hip_l/hip_flexion_l/value	/jointset/hip_l/hip_adduction_l/value	/jointset/hip_l/hip_rotation_l/value	/jointset/back/lumbar_extension/value	/jointset/patellofemoral_l/patellar_flexion_l/value	/jointset/knee_l/knee_flexion_l/value	/jointset/knee_l/knee_adduction_l/value	/jointset/knee_l/knee_rotation_l/value	/jointset/ankle_l/ankle_angle_l/value	/jointset/subtalar_l/subtalar_angle_l/value	/jointset/ground_pelvis/pelvis_tilt/speed	/jointset/ground_pelvis/pelvis_tx/speed	/jointset/ground_pelvis/pelvis_ty/speed	/jointset/hip_l/hip_flexion_l/speed	/jointset/hip_l/hip_adduction_l/speed	/jointset/hip_l/hip_rotation_l/speed	/jointset/back/lumbar_extension/speed	/jointset/patellofemoral_l/patellar_flexion_l/speed	/jointset/knee_l/knee_flexion_l/speed	/jointset/knee_l/knee_adduction_l/speed	/jointset/knee_l/knee_rotation_l/speed	/jointset/ankle_l/ankle_angle_l/speed	/jointset/subtalar_l/subtalar_angle_l/speed	/forceset/tau_hip_flexion_l	/forceset/tau_hip_adduction_l	/forceset/tau_hip_rotation_l	/forceset/tau_knee_flexion_l	/forceset/tau_ankle_angle_l	/forceset/tau_subtalar_angle_l	/forceset/tau_lumbar_extension	lambda_cid13_p0	lambda_cid13_p1	lambda_cid13_p2	lambda_cid13_p3	lambda_cid13_p4	lambda_cid13_p5	lambda_cid14_p0	/jointset/ground_pelvis/pelvis_tilt/accel	/jointset/ground_pelvis/pelvis_tx/accel	/jointset/ground_pelvis/pelvis_ty/accel	/jointset/hip_l/hip_flexion_l/accel	/jointset/hip_l/hip_adduction_l/accel	/jointset/hip_l/hip_rotation_l/accel	/jointset/back/lumbar_extension/accel	/jointset/patellofemoral_l/patellar_flexion_l/accel	/jointset/knee_l/knee_flexion_l/accel	/jointset/knee_l/knee_adduction_l/accel	/jointset/knee_l/knee_rotation_l/accel	/jointset/ankle_l/ankle_angle_l/accel	/jointset/subtalar_l/subtalar_angle_l/accel	gamma_cid13_p0	gamma_cid13_p1	gamma_cid13_p2	gamma_cid13_p3	gamma_cid13_p4	gamma_cid13_p5	gamma_cid14_p0
1	-0.4770322020468796	-0.008085428136733259	0.5710354017455292	1.787060492348155	-0.342114989232401	0.1390112636282833	-0.4363317607975378	1.564879979872439	1.564879979872392	0.08388546958525134	-0.1745322014334332	0.4348811582030296	0.2565137052867822	-0.1472451140305879	-0.002996907181508044	0.03309207101682327	0.03331144120095559	0.0006517328193153517	-0.05755935676233617	2.343511675207187e-06	-0.1530436607268785	-0.1530436607268794	-0.003110659881855177	-1.161787465271267e-06	-0.05257369982805482	-0.0312984063318282	-0.254968699746275	0.03108115016673464	-0.01838132019324078	-0.2905072282491776	-0.04541569193366798	0.01565990173090807	0.2176795079440553	-46.67661699583513	6.223158331479975	-6.814750251612165	8.860805689646234	-548.1266967191931	-71.13549404168461	-0.02351708094227415	1.513076436853586	0.1375389361559302	2.138316132731888	-6.902309563415592	-0.2311919264203524	-1.572030903617494	-0.01793723833108178	-5.828031515471735	-5.828031515471739	-0.9607458114199383	-0.03471801478140331	-0.9503139619577826	-0.9516513688151113	1.031911822334178e-09	-1.634676493391643e-07	-9.192283873801535e-08	-1.734031759605886e-08	-8.541512475186787e-09	-2.472947922886889e-07	1.163472650312341e-08
1.01	-0.4784296729965053	-0.008108487572033215	0.5714730255632874	1.787049498210167	-0.342119334834162	0.1383598087085951	-0.4363317487344761	1.563058589046698	1.563058589046689	0.08380460682681605	-0.1745322104655131	0.4343079438202166	0.256154317237764	-0.1322388010333334	-0.001605720004055226	0.05442314787470573	-0.03550002364083197	-0.001515667379568349	-0.0727225160119173	5.466404780289813e-07	-0.2112266550309368	-0.2112266550309362	-0.01305621456074253	-3.773822912704299e-07	-0.06207834381055915	-0.0405695599994382	-0.25531336564345	0.03110842250202733	-0.01840069853208239	-0.2896375787653504	-0.04552582023270747	0.015702056745915	0.2178462313239065	-46.67200256261681	6.172593856880789	-6.770767217875558	8.697851789620985	-547.9156329468443	-71.00917836554883	-0.02353182819271257	1.495950815156374	0.1412918226515373	2.129069022220686	-6.869027367784875	-0.2087164216474356	-1.48709638109437	0.008770718900488927	-5.812259036797377	-5.812259036797169	-1.010619387842401	0.01747573008363058	-0.9519239247336206	-0.9133508218492213	1.804114450825596e-09	-2.158769515559712e-07	-1.318553189353047e-07	-2.872046499571212e-08	-1.365381556303221e-08	-3.214598637194785e-07	1.525088857838798e-08
1.02	-0.479676772399359	-0.008117358492736426	0.5721236732616051	1.786350696939115	-0.3421451949089171	0.1375569946073189	-0.4363317403140389	1.560655603148131	1.560655603148159	0.0836244567032545	-0.1745322118411584	0.4336394061359114	0.2557025169608465	-0.1171708046762793	-0.0001592042621589883	0.07569684712876167	-0.1042499854116019	-0.00365116177945404	-0.08783119308013405	1.614985861316787e-06	-0.2693626752919741	-0.2693626752919719	-0.02296813290840203	3.694995561393112e-07	-0.07163836012653599	-0.04978085191165722	-0.2556580315406289	0.03113569483731887	-0.01842007687091314	-0.288767929281522	-0.04563594853174568	0.0157442117609207	0.2180129547037539	-46.67150352137935	6.121228420851202	-6.724918149889181	8.537259990204062	-547.8099863145809	-70.88244692942945	-0.02354909661142609	1.525413108813457	0.1486046490446247	2.126840611966585	-6.890008949212069	-0.224810766620739	-1.561134467344616	-0.0173641950151627	-5.818636706867525	-5.818636706867542	-0.9540185451743582	-0.03472551944668423	-0.9613884286522651	-0.9396790177368853	2.526401106096372e-09	-2.659401320989601e-07	-1.691810545767132e-07	-3.977627169669208e-08	-1.842163859359788e-08	-3.888359042784537e-07	1.822122090508481e-08
1.03	-0.4807728443739423	-0.008111436006670445	0.57298668002417	1.784964864244127	-0.3421922280866105	0.1366034020656566	-0.4363317221242606	1.557671621910198	1.557671621910225	0.08334541658246551	-0.1745322102526125	0.4328749446649836	0.2551589337030002	-0.102029551448561	0.001358123076014615	0.09688592327183668	-0.1728906813454603	-0.005747955324920986	-0.102871017835286	9.636264541309335e-07	-0.3274127569825299	-0.3274127569825298	-0.03283201436690018	1.926882143316482e-07	-0.08126746465538265	-0.05892262240964249	-0.2557003668110674	0.03112434950277451	-0.01839179964748077	-0.2877792910209846	-0.04552513271612341	0.01584406130051462	0.2179906988817867	-46.5673052221368	6.018649877064865	-6.661767461538922	8.27677881767104	-547.3773841084267	-70.80429947616993	-0.02357157264123828	1.51058759553227	0.1554497835983882	2.112149132569777	-6.847218807522911	-0.2009537943445131	-1.472968929241229	0.008425491744248722	-5.795075858314759	-5.795075858315056	-1.00140798544703	0.0173105120798316	-0.9657145422577624	-0.8993744620350228	3.248178414701632e-09	-3.159793726248693e-07	-2.06480190783878e-07	-5.082876879870598e-08	-2.318594652153824e-08	-4.561426690122062e-07	2.118496313230645e-08
1.04	-0.4817170825830938	-0.008089909645743869	0.5740610191515836	1.782893400811389	-0.3422599972289259	0.1354998987865157	-0.4363317422284167	1.554107763463727	1.554107763463753	0.08296797063923267	-0.1745322155773805	0.4320137835333158	0.254524343060933	-0.08680405158959051	0.002961570709960069	0.1179633200985767	-0.2413761329613268	-0.007798354703781343	-0.1178133405760651	-6.043807040794e-06	-0.3853381169996922	-0.3853381169996942	-0.04264929739577935	-1.013160816944054e-06	-0.09097829227450391	-0.06798232875585311	-0.2557427020815071	0.03111300416823141	-0.01836352242407584	-0.2867906527604486	-0.04541431690050048	0.01594391084011159	0.2179684430598188	-46.4674652048023	5.915384426414458	-6.596850631340758	8.019133925941626	-547.0510599187886	-70.72650324126232	-0.02359668014635886	1.542262435063873	0.1658287081990067	2.104504748699592	-6.858960085613693	-0.2155319332994135	-1.541634064470034	-0.01863540983267406	-5.793692372188839	-5.793692372188844	-0.9446988592505554	-0.03493132698455041	-0.9777330467071654	-0.9232661873819261	3.782516284241263e-09	-3.631725036388732e-07	-2.410460602237783e-07	-6.081894992589458e-08	-2.777138001347782e-08	-5.16924776007035e-07	2.369730227849137e-08
1.05	-0.4825085989602025	-0.008051872737223794	0.5753454891685623	1.78013799758931	-0.3423480149990336	0.1342473961696315	-0.4363318303193207	1.549965381381642	1.549965381381677	0.08249273844197745	-0.1745322434210869	0.4310550519263009	0.2537995946690639	-0.07148118464166756	0.004664719342733548	0.1389037018532994	-0.3096651296689901	-0.009794705342632376	-0.1326702542488316	-8.859438722101153e-06	-0.4431068373750191	-0.4431068373750319	-0.05238083905042769	-3.26492775382028e-06	-0.1007864487934594	-0.0769498241542763	-0.2555506507619167	0.03108081417605649	-0.01829163126451952	-0.2856332493895603	-0.04518115960687333	0.01609816960674151	0.2178074928198019	-46.29866017972751	5.765401503874988	-6.51190745655376	7.694428329988883	-546.4280487406711	-70.68690977791346	-0.02362740473146264	1.530004589269709	0.1753799374078496	2.084751155779369	-6.807962418665753	-0.1900687914358366	-1.455190312870074	0.009302599869007784	-5.763747828193533	-5.763747828195126	-0.9849590730580209	0.01723943023080368	-0.9851374571569768	-0.8807639991981621	4.310996671310095e-09	-4.102766937306302e-07	-2.755265150772017e-07	-7.077593367886989e-08	-3.235122367929237e-08	-5.775029874475224e-07	2.619553507839389e-08
1.06	-0.4831463455149127	-0.007996239943057773	0.5768385522564722	1.776700885809088	-0.3424556727079819	0.1328468303571826	-0.4363318651185737	1.545246254904205	1.545246254904252	0.08192067537725943	-0.1745322714761253	0.4299976826535625	0.2529857167665853	-0.05605008710921282	0.006480747839148899	0.1596819342848422	-0.3777178445895775	-0.01172634247179888	-0.1474259796892003	4.614517792904082e-06	-0.5006869960699042	-0.5006869960699267	-0.0620154708845194	-1.055423528667432e-06	-0.1107058254191034	-0.08580823087772416	-0.2553585994423197	0.03104862418388484	-0.01821974010502537	-0.2844758460186752	-0.04494800231324654	0.01625242837337774	0.2176465425797927	-46.13455159052526	5.614892555557756	-6.425339940648584	7.373134553010303	-545.9126945371381	-70.64866353551503	-0.02366092553034327	1.563908551970189	0.1884046809273993	2.072074884063631	-6.811703728198516	-0.2025892313625244	-1.521396417990509	-0.01537749219346426	-5.755980036100491	-5.755980036100276	-0.9253168951392343	-0.03403907275217075	-0.999977068044839	-0.9014484523868637	4.942584546486377e-09	-4.513342537371895e-07	-3.0458219390117e-07	-7.984182640046012e-08	-3.615023160832824e-08	-6.26542126864744e-07	2.790934377982705e-08
1.07	-0.483629201834424	-0.007921861063267725	0.578538490249572	1.77258462297813	-0.342582314606286	0.1312991791045802	-0.4363318356575952	1.539952386913958	1.53995238691395	0.08125285450052426	-0.1745323010139561	0.4288404705005479	0.2520837784004685	-0.04050052351567564	0.00841592655582009	0.1802690582180983	-0.4454759340760429	-0.01358870011873702	-0.1620812372625107	-1.019823027985701e-05	-0.5580431670646795	-0.5580431670646824	-0.07152993921347069	-3.39591118885113e-06	-0.1207634443096911	-0.09456013246336706	-0.2547942513763581	0.03100448354626196	-0.01810393715198334	-0.2831949321437885	-0.04449940284341829	0.01645097281090099	0.2172263577384772	-45.86963593513063	5.421990203849551	-6.325720866838735	6.98696988243301	-545.0154849163634	-70.63725610008544	-0.02370099200239825	1.553577684280907	0.199191333044294	2.046532195732714	-6.749044125153005	-0.1760046769619062	-1.434147460524373	0.003745443137309251	-5.718926333871173	-5.718926333868342	-0.9617258206535126	0.01678851853417665	-1.012701210364714	-0.8590461779007196	5.579656862519438e-09	-4.920701844838977e-07	-3.333493208086779e-07	-8.886032066293412e-08	-3.9907705721578e-08	-6.749674858551959e-07	2.958142779517141e-08
1.08	-0.483955943033758	-0.007827507023109529	0.5804431996915594	1.767792542739046	-0.3427271692101808	0.1296056638695402	-0.436332298602063	1.534086259073222	1.534086259073162	0.0804904461367313	-0.1745323299455731	0.4275818727764673	0.2510949239852457	-0.02482706307271464	0.01047577991277813	0.2006362240623855	-0.5128813262138039	-0.0153688835897717	-0.1765987761767421	-9.38666082926485e-05	-0.6151389661676616	-0.6151389661676466	-0.08093296829764186	-9.341865637132567e-07	-0.1309829396322381	-0.1031914406989172	-0.2542299033103997	0.03096034290863922	-0.0179881341989259	-0.2819140182689032	-0.04405080337359106	0.01664951724842363	0.2168061728971561	-45.60980702655523	5.228730511326738	-6.224618984887478	6.604987132904133	-544.227238009385	-70.62851904520919	-0.02374407352019037	1.588687921854907	0.2133396089847913	2.02808326626985	-6.741164258457625	-0.1861543961818436	-1.49385268617472	-0.02914861818209549	-5.703905657741871	-5.703905657741997	-0.9030290461832162	-0.03307863029511979	-1.032352354436678	-0.8773297823682994	3.154437694537573e-09	-5.324697094058669e-07	-3.483921294246964e-07	-9.296632702592483e-08	-4.523996199260467e-08	-7.02153152295973e-07	2.759957068187928e-08
